<svg id="Layer_1" data-name="Layer 1" xmlns="http://www.w3.org/2000/svg" viewBox="0 0 1719.98 1719.98"><defs><style>.cls-3{fill:#f8feff}</style></defs><path d="M859.99 1719.98c-116.08 0-228.71-22.74-334.76-67.6-102.41-43.32-194.38-105.32-273.35-184.29-78.97-78.97-140.97-170.94-184.29-273.35C22.74 1088.7 0 976.07 0 859.99s22.74-228.71 67.6-334.76c43.32-102.41 105.32-194.38 184.29-273.35 78.97-78.97 170.93-140.97 273.35-184.29C631.28 22.74 743.91 0 859.99 0s228.71 22.74 334.76 67.6c102.41 43.32 194.38 105.32 273.35 184.29 78.97 78.97 140.97 170.94 184.29 273.35 44.85 106.05 67.6 218.68 67.6 334.76s-22.74 228.71-67.6 334.76c-43.32 102.41-105.32 194.38-184.29 273.35-78.97 78.97-170.93 140.97-273.35 184.29-106.05 44.86-218.68 67.6-334.76 67.6z"/><circle cx="859.99" cy="859.99" r="782.57"/><g><path class="cls-3" d="M247.83 1041.44h16.72c2.95 0 4.87-3.12 3.53-5.75l-24.94-49.17h14.87c2.56 0 4.29-2.6 3.31-4.96l-29.23-70.3c-1.23-2.95-5.4-2.95-6.62 0l-29.23 70.3c-.98 2.36.75 4.96 3.31 4.96h14.87l-24.94 49.17c-1.34 2.64.58 5.75 3.53 5.75h16.72l-23.94 42.9c-1.55 2.77.46 6.18 3.63 6.18h32.35v53.79h14.03v-53.79h32.35c3.17 0 5.17-3.41 3.63-6.18l-23.94-42.9zM1510.26 1041.44h16.72c2.95 0 4.87-3.12 3.53-5.75l-24.94-49.17h14.87c2.56 0 4.29-2.6 3.31-4.96l-29.23-70.3c-1.23-2.95-5.4-2.95-6.62 0l-29.23 70.3c-.98 2.36.75 4.96 3.31 4.96h14.87l-24.94 49.17c-1.34 2.64.58 5.75 3.53 5.75h16.72l-23.94 42.9c-1.55 2.77.46 6.18 3.63 6.18h32.35v53.79h14.03v-53.79h32.35c3.17 0 5.17-3.41 3.63-6.18l-23.94-42.9z"/><circle class="cls-3" cx="505.72" cy="558.43" r="178.65"/><path d="M505.72 720.57c-89.41 0-162.14-72.74-162.14-162.14s72.74-162.14 162.14-162.14 162.14 72.74 162.14 162.14-72.74 162.14-162.14 162.14z" style="fill:#ff7c42"/><path class="cls-3" d="m1458.17 1115.27-279.94-316.9a20.579 20.579 0 0 0-15.45-6.96c-4.16 0-8.35 1.26-11.96 3.84l-64.53 46.1-215.41-213.28a20.61 20.61 0 0 0-14.5-5.96h-.37c-5.55.1-10.83 2.43-14.64 6.48L638.19 844.51l-70.2-45.97a20.505 20.505 0 0 0-11.28-3.37c-5.7 0-11.35 2.36-15.38 6.89l-279.44 313.16c-3.44 3.85-5.21 8.75-5.22 13.72h1206.64c0-4.93-1.76-9.8-5.15-13.64z"/><path d="M277.26 1128.91 556.7 815.75l84.66 55.44 215.01-228.5 227.75 225.5 78.66-56.18 279.94 316.9H277.26z"/><path class="cls-3" d="M1153.24 828.83a786.782 786.782 0 0 0-103.04 107.95c19.62 26.19 39.25 52.38 58.87 78.56 23.34-31.61 38.73-64.57 52.69-101.3-12.88-26.3-17.12-57.22-8.52-85.21zm-33.18 93.79c-2.53 3.94-5.5 7.69-8.81 11.02-1.17 1.52-2.46 2.94-3.95 4.13-2.78 2.22-6.43 4.19-10.09 4.19-3.41 0-6.34-2.2-7.09-5.56-.57-2.56.04-5.28.94-7.69 1.3-3.51 3.04-6.73 5.11-9.84 2.64-3.96 5.48-7.84 8.66-11.39 1.6-1.79 3.47-3.73 5.58-5.21.45-.38.93-.69 1.44-.91 1.11-.62 2.28-1.1 3.52-1.33 5.82-1.07 10.3 3.72 9.9 9.42-.34 4.75-2.66 9.22-5.19 13.16z"/><path d="M472.58 1011.64c-46.96 8.87-66.16 89.98-109.26 101.82h40.17c-.85-.72-1.69-1.49-2.5-2.32 28.95-28.41 53.34-62.32 71.59-99.5z" style="fill:none"/><path class="cls-3" d="M472.58 1011.64c-18.25 37.18-42.65 71.09-71.59 99.5.81.83 1.65 1.6 2.5 2.32h50.61c12.75-7.11 24.43-18.31 32.08-31.1 18.71-31.3 24.27-69.5 42.44-101.16 5.42-9.44 11.97-18.35 15.46-28.72 10.83-32.2-9.7-73.75 10.1-98.77l-227.92 259.75h37.06c43.11-11.84 62.3-92.95 109.26-101.82zM554.17 853.72c.93-1.06 1.86-2.12 2.79-3.19-1.02 1.02-1.93 2.1-2.79 3.19zM857 741.8c-4.46-24.52-2.06-50.86 6.82-74.77-64.48 71.62-133.13 140.3-197.62 211.91-4.49 4.98-9.36 11.86-6.85 17.89 3.92 9.43 17.28 2.69 25.21-3.96s23.6-8.67 23.08 1.91c-54.82 76.85-114.96 151.02-179.46 218.68h68.39c82.8-103.17 165.61-206.34 248.42-309.51 6.25-7.78 12.7-15.98 15.07-25.81 2.92-12.12-.86-24.35-3.04-36.34zm-60.08 65.15c-5.9 9.03-13.38 16.71-20.19 24.93-3.34 4.03-6.49 8.11-10.09 11.9-3.93 4.13-8.32 8.67-13.35 11.12-6.41 3.12-12.16-.09-12.48-7.62-.36-8.7 5.92-16.36 11.26-22.46 4.34-4.95 9.59-10.45 13.23-15.17 4.87-6.3 9.72-12.69 15.22-18.4 2.15-2.23 4.72-4.83 7.55-6.81 3.23-3.85 7.11-6.49 11.73-4.34 9.95 4.63 1.34 20.4-2.88 26.85zM632.33 1113.47h197.75c1.95-55.38 6.52-110.78 11.11-166.15.58-6.96 1.15-13.92 1.73-20.88 1.95-23.55 2.7-48.83 4.65-72.39l-215.25 259.41zm141.15-87.01c-3.42 5.18-7.84 10.97-13.26 14.23-1.82 1.64-3.82 2.97-6.05 3.62-7.15 2.07-11.32-5.67-10.79-12.33.49-6.19 3.29-12.35 5.99-17.88 2.72-5.6 5.96-10.89 9.78-15.74 3.56-4.52 8.12-8.87 13.56-10.25 1.04-.26 2.22-.14 3.27.28 3.14.6 5.58 3.19 6.76 6.52.16.35.3.71.38 1.07.02.09 0 .18.02.26.14.57.24 1.16.3 1.76 1.02 9.95-4.63 20.37-9.97 28.45zM239.72 1229.31h1240.55c5.67-9.64 11.12-19.42 16.35-29.33H223.37c5.23 9.92 10.68 19.7 16.35 29.33zM309.34 1327.72h1101.29c7.89-9.38 15.56-18.96 22.97-28.75H286.37c7.41 9.78 15.08 19.36 22.97 28.75zM407.6 1424.17h904.79c11.2-9.07 22.14-18.46 32.77-28.18H374.82c10.63 9.72 21.57 19.1 32.77 28.18zM354.02 1376.18h1011.94c9.34-9.24 18.44-18.72 27.26-28.46H326.76c8.82 9.74 17.92 19.22 27.26 28.46zM695.06 1565.25h329.86c30.65-7.19 60.54-16.37 89.54-27.34H605.53c29 10.97 58.89 20.15 89.54 27.34zM473.44 1471.67h773.11a724.895 724.895 0 0 0 40.52-27.89H432.91c13.18 9.74 26.68 19.06 40.53 27.89zM559.6 1518.7h600.78a715.102 715.102 0 0 0 53.88-27.62H505.72a720.772 720.772 0 0 0 53.88 27.62zM271.59 1278.76h1176.79a722.61 722.61 0 0 0 19.42-29.04H252.18c6.24 9.84 12.72 19.53 19.42 29.04zM212.89 1179.36H1507.1c4.75-9.75 9.27-19.63 13.58-29.63H199.31a708.35 708.35 0 0 0 13.58 29.63z"/><path d="M859.99 1584.28c56.76 0 111.96-6.6 164.93-19.03H695.06c52.96 12.43 108.17 19.03 164.93 19.03zM605.52 1537.91h508.93c15.57-5.89 30.89-12.3 45.92-19.22H559.59a713.146 713.146 0 0 0 45.92 19.22zM505.72 1491.08h708.55a714.48 714.48 0 0 0 32.28-19.41H473.44a714.48 714.48 0 0 0 32.28 19.41zM432.91 1443.78h854.16a727.35 727.35 0 0 0 25.32-19.61H407.6c8.29 6.72 16.72 13.26 25.31 19.61zM374.82 1395.99h970.34c7.07-6.46 14-13.07 20.8-19.81H354.02c6.81 6.74 13.73 13.35 20.8 19.81zM326.76 1347.72h1066.46c5.94-6.55 11.72-13.24 17.42-20.01H309.34c5.69 6.77 11.48 13.45 17.42 20.01zM286.37 1298.97h1147.24c5.04-6.65 9.97-13.38 14.78-20.21H271.59c4.81 6.83 9.74 13.56 14.78 20.21zM252.18 1249.72h1215.63c4.27-6.73 8.41-13.54 12.46-20.41H239.72c4.05 6.88 8.19 13.69 12.46 20.41zM223.37 1199.98h1273.25c3.59-6.81 7.1-13.68 10.48-20.62H212.89c3.38 6.94 6.88 13.81 10.48 20.62zM190.66 1128.91c2.76 7 5.67 13.93 8.65 20.83h1321.36c2.98-6.89 5.88-13.82 8.65-20.83H190.66z"/></g></svg>