<svg xmlns="http://www.w3.org/2000/svg" aria-hidden="true" style="position:absolute;width:0;height:0;overflow:hidden">
  <defs>
    <symbol id="icon-star" viewBox="0 0 34 32">
      <path d="M16.123 1.788a1.067 1.067 0 0 1 1.887 0l4.028 7.635c.154.293.436.497.761.553l8.506 1.472a1.066 1.066 0 0 1 .583 1.794l-6.017 6.19c-.23.237-.338.568-.291.895l1.229 8.544a1.066 1.066 0 0 1-1.526 1.109l-7.747-3.809a1.066 1.066 0 0 0-.941 0L8.848 29.98a1.066 1.066 0 0 1-1.526-1.109l1.229-8.544a1.065 1.065 0 0 0-.291-.895l-6.016-6.19a1.066 1.066 0 0 1 .583-1.794l8.506-1.472c.326-.056.607-.261.762-.553l4.028-7.635z"/>
    </symbol>
    <symbol id="icon-alcove" viewBox="0 0 32 32">
      <path d="M6.857 2.286v4.571H2.286V2.286h4.571zm2.286 27.428v-4.571a2.287 2.287 0 0 0-2.285-2.285H2.287a2.287 2.287 0 0 0-2.285 2.285v4.571a2.287 2.287 0 0 0 2.285 2.285h4.571a2.287 2.287 0 0 0 2.285-2.285zm0-11.428v-4.571a2.287 2.287 0 0 0-2.285-2.285H2.287a2.287 2.287 0 0 0-2.285 2.285v4.571a2.287 2.287 0 0 0 2.285 2.285h4.571a2.287 2.287 0 0 0 2.285-2.285zm0-11.429V2.286A2.287 2.287 0 0 0 6.858.001H2.287A2.287 2.287 0 0 0 .002 2.286v4.571a2.287 2.287 0 0 0 2.285 2.285h4.571a2.287 2.287 0 0 0 2.285-2.285zm11.428 22.857v-4.571a2.287 2.287 0 0 0-2.285-2.285h-4.571a2.287 2.287 0 0 0-2.285 2.285v4.571a2.287 2.287 0 0 0 2.285 2.285h4.571a2.287 2.287 0 0 0 2.285-2.285zm0-11.428v-4.571a2.287 2.287 0 0 0-2.285-2.285h-4.571a2.287 2.287 0 0 0-2.285 2.285v4.571a2.287 2.287 0 0 0 2.285 2.285h4.571a2.287 2.287 0 0 0 2.285-2.285zm0-11.429V2.286A2.287 2.287 0 0 0 18.286.001h-4.571a2.287 2.287 0 0 0-2.285 2.285v4.571a2.287 2.287 0 0 0 2.285 2.285h4.571a2.287 2.287 0 0 0 2.285-2.285zm-2.285-4.571v4.571h-4.571V2.286h4.571zm11.428 0v4.571h-4.571V2.286h4.571zM6.857 13.714v4.571H2.286v-4.571h4.571zm11.429 0v4.571h-4.571v-4.571h4.571zm11.428 0h-4.571v4.571h4.571v-4.571zM6.857 25.143v4.571H2.286v-4.571h4.571zm11.429 0v4.571h-4.571v-4.571h4.571zm11.428 0v4.571h-4.571v-4.571h4.571zM25.143 0a2.287 2.287 0 0 0-2.285 2.285v4.571a2.287 2.287 0 0 0 2.285 2.285h4.571a2.287 2.287 0 0 0 2.285-2.285V2.285A2.287 2.287 0 0 0 29.714 0h-4.571zm-2.286 13.714a2.287 2.287 0 0 1 2.285-2.285h4.571a2.287 2.287 0 0 1 2.285 2.285v4.571a2.287 2.287 0 0 1-2.285 2.285h-4.571a2.287 2.287 0 0 1-2.285-2.285v-4.571zm2.286 9.143a2.287 2.287 0 0 0-2.285 2.285v4.571a2.287 2.287 0 0 0 2.285 2.285h4.571a2.287 2.287 0 0 0 2.285-2.285v-4.571a2.287 2.287 0 0 0-2.285-2.285h-4.571z"/>
    </symbol>
    <symbol id="icon-cup-hot" viewBox="0 0 33 32">
      <path d="M1.5 12a1.007 1.007 0 0 0-.779.374.997.997 0 0 0-.197.842l3.304 14.868A4.998 4.998 0 0 0 8.708 32h11.584a4.996 4.996 0 0 0 4.88-3.916l.262-1.18a6 6 0 0 0 2.601-11.708l.442-1.98A1.003 1.003 0 0 0 27.501 12h-26zm25 13a4.05 4.05 0 0 1-.632-.05l1.734-7.796A4.002 4.002 0 0 1 26.5 25zM5.78 27.65 2.746 14h23.508L23.22 27.65c-.148.666-.519 1.262-1.051 1.69s-1.194.66-1.877.66H8.708a2.998 2.998 0 0 1-2.928-2.35zM9.3 1.6l-.006.008-.028.038c-.146.2-.282.407-.408.62a4.003 4.003 0 0 0-.282.534c-.052.12-.068.184-.074.206v.008c.023.177.085.346.182.496.15.266.356.544.616.89l.02.024c.236.316.52.694.74 1.086.224.4.44.91.44 1.49 0 .376-.13.736-.238.988a6.142 6.142 0 0 1-.404.776 10.2 10.2 0 0 1-.506.764l-.036.05-.01.016-.004.004a1.004 1.004 0 0 1-1.4.202A1 1 0 0 1 7.7 8.4l.006-.008.028-.038c.146-.2.282-.407.408-.62.107-.171.202-.349.282-.534.052-.12.068-.184.074-.206a1.199 1.199 0 0 0-.18-.504A8.024 8.024 0 0 0 7.7 5.6l-.02-.024c-.27-.345-.517-.708-.74-1.086A3.066 3.066 0 0 1 6.5 3c0-.376.13-.736.238-.988.118-.276.268-.548.404-.776.159-.261.328-.516.506-.764l.05-.07A1.004 1.004 0 0 1 9.098.2 1.004 1.004 0 0 1 9.3 1.6zm6 0-.006.008-.028.038c-.146.2-.282.407-.408.62a4.003 4.003 0 0 0-.282.534c-.052.12-.068.184-.074.206v.008c.023.177.085.346.182.496.15.266.356.544.616.89l.02.024c.236.316.52.694.74 1.086.224.4.44.91.44 1.49 0 .376-.13.736-.238.988a6.142 6.142 0 0 1-.404.776 10.2 10.2 0 0 1-.506.764l-.036.05-.01.016-.004.004a1.004 1.004 0 0 1-1.4.202 1 1 0 0 1-.202-1.4l.006-.008.028-.038c.146-.2.282-.407.408-.62.107-.171.202-.349.282-.534.052-.12.068-.184.074-.206a1.199 1.199 0 0 0-.18-.504 8.024 8.024 0 0 0-.618-.89l-.02-.024c-.27-.345-.517-.708-.74-1.086A3.066 3.066 0 0 1 12.5 3c0-.376.13-.736.238-.988.118-.276.268-.548.404-.776.159-.261.328-.516.506-.764l.05-.07a1.004 1.004 0 0 1 1.4-.202 1 1 0 0 1 .202 1.4zm6 0-.006.008-.028.038c-.145.2-.282.407-.408.62a4.003 4.003 0 0 0-.282.534c-.052.12-.068.184-.074.206v.008c.023.177.085.346.182.496.15.266.356.544.616.89l.02.024c.236.316.52.694.74 1.086.224.4.44.91.44 1.49 0 .376-.13.736-.238.988a6.142 6.142 0 0 1-.404.776 9.875 9.875 0 0 1-.504.764l-.038.05-.01.016-.004.004a1.004 1.004 0 0 1-1.4.202 1 1 0 0 1-.202-1.4l.006-.008.028-.038c.145-.2.282-.407.408-.62.107-.171.202-.349.282-.534.052-.12.068-.184.074-.206a1.199 1.199 0 0 0-.18-.504 8.024 8.024 0 0 0-.618-.89l-.02-.024c-.27-.345-.517-.708-.74-1.086A3.066 3.066 0 0 1 18.5 3c0-.376.13-.736.238-.988.118-.276.268-.548.404-.776.159-.261.328-.516.506-.764l.05-.07a1.004 1.004 0 0 1 1.4-.202 1 1 0 0 1 .202 1.4z"/>
    </symbol>
    <symbol id="icon-diagram" viewBox="0 0 43 32">
      <path d="M16 4a4.003 4.003 0 0 1 4-4h2.667a4.003 4.003 0 0 1 4 4v2.667a4.003 4.003 0 0 1-4 4v2.667h14.667a1.334 1.334 0 0 1 1.334 1.334v2.667a1.334 1.334 0 0 1-2.668 0v-1.333H22.667v1.333a1.334 1.334 0 0 1-2.668 0v-1.333H6.666v1.333a1.335 1.335 0 0 1-2.277.943 1.334 1.334 0 0 1-.391-.943v-2.667a1.335 1.335 0 0 1 1.334-1.334h14.667v-2.667a4.003 4.003 0 0 1-4-4V4zm6.667 4a1.335 1.335 0 0 0 1.334-1.334V3.999a1.334 1.334 0 0 0-1.334-1.334H20a1.335 1.335 0 0 0-1.334 1.334v2.667A1.334 1.334 0 0 0 20 8h2.667zM0 25.333a4.003 4.003 0 0 1 4-4h2.667a4.003 4.003 0 0 1 4 4V28a4.003 4.003 0 0 1-4 4H4a4.003 4.003 0 0 1-4-4v-2.667zM4 24a1.334 1.334 0 0 0-1.334 1.334v2.667A1.335 1.335 0 0 0 4 29.335h2.667a1.334 1.334 0 0 0 1.334-1.334v-2.667A1.335 1.335 0 0 0 6.667 24H4zm12 1.333a4.003 4.003 0 0 1 4-4h2.667a4.003 4.003 0 0 1 4 4V28a4.003 4.003 0 0 1-4 4H20a4.003 4.003 0 0 1-4-4v-2.667zM20 24a1.334 1.334 0 0 0-1.334 1.334v2.667A1.334 1.334 0 0 0 20 29.335h2.667a1.334 1.334 0 0 0 1.334-1.334v-2.667A1.334 1.334 0 0 0 22.667 24H20zm12 1.333a4.003 4.003 0 0 1 4-4h2.667a4.003 4.003 0 0 1 4 4V28a4.003 4.003 0 0 1-4 4H36a4.003 4.003 0 0 1-4-4v-2.667zM36 24a1.334 1.334 0 0 0-1.334 1.334v2.667A1.334 1.334 0 0 0 36 29.335h2.667a1.334 1.334 0 0 0 1.334-1.334v-2.667A1.334 1.334 0 0 0 38.667 24H36z"/>
    </symbol>
    <symbol id="icon-fuel-pump" viewBox="0 0 32 32">
      <path d="M6 5a.997.997 0 0 1 1-1h10a.997.997 0 0 1 1 1v10a.997.997 0 0 1-1 1H7a.997.997 0 0 1-1-1V5z"/>
      <path d="M2 4a4.003 4.003 0 0 1 4-4h12a4.003 4.003 0 0 1 4 4v16a4.003 4.003 0 0 1 4 4v1a.997.997 0 0 0 1 1 .997.997 0 0 0 1-1v-9h-1a.997.997 0 0 1-1-1V8.75a.997.997 0 0 1 1-1h2.99c-.022-.952-.106-1.788-.402-2.444a1.944 1.944 0 0 0-.788-.916C28.432 4.17 27.872 4 27 4a.997.997 0 0 1-1-1 .997.997 0 0 1 1-1c1.128-.003 2.069.221 2.824.672.766.456 1.268 1.102 1.588 1.814.59 1.31.588 2.93.588 4.162v6.35c0 .132-.025.262-.076.383s-.124.232-.217.325a.991.991 0 0 1-.708.293h-1v9a3.004 3.004 0 0 1-3 3 2.998 2.998 0 0 1-3-3v-1a2 2 0 0 0-2-2v8h1a.997.997 0 0 1 1 1 .997.997 0 0 1-1 1h-22a.997.997 0 0 1-1-1 .997.997 0 0 1 1-1h1v-26zm18 0a2 2 0 0 0-2-2H6a2 2 0 0 0-2 2v26h16V4z"/>
    </symbol>
    <symbol id="icon-fully" viewBox="0 0 32 32">
      <path d="M0 3.429A3.428 3.428 0 0 1 3.428.001h6.857a3.428 3.428 0 0 1 3.428 3.428v6.857a3.428 3.428 0 0 1-3.428 3.428H3.428A3.428 3.428 0 0 1 0 10.286V3.429zm3.429-1.143a1.14 1.14 0 0 0-1.143 1.143v6.857a1.14 1.14 0 0 0 1.143 1.143h6.857a1.14 1.14 0 0 0 1.143-1.143V3.429a1.14 1.14 0 0 0-1.143-1.143H3.429zm14.857 1.143A3.428 3.428 0 0 1 21.714.001h6.857a3.428 3.428 0 0 1 3.428 3.428v6.857a3.428 3.428 0 0 1-3.428 3.428h-6.857a3.428 3.428 0 0 1-3.428-3.428V3.429zm3.428-1.143a1.14 1.14 0 0 0-1.143 1.143v6.857a1.14 1.14 0 0 0 1.143 1.143h6.857a1.14 1.14 0 0 0 1.143-1.143V3.429a1.14 1.14 0 0 0-1.143-1.143h-6.857zM0 21.714a3.428 3.428 0 0 1 3.428-3.428h6.857a3.428 3.428 0 0 1 3.428 3.428v6.857a3.428 3.428 0 0 1-3.428 3.428H3.428A3.428 3.428 0 0 1 0 28.571v-6.857zm3.429-1.143a1.14 1.14 0 0 0-1.143 1.143v6.857a1.14 1.14 0 0 0 1.143 1.143h6.857a1.14 1.14 0 0 0 1.143-1.143v-6.857a1.14 1.14 0 0 0-1.143-1.143H3.429zm14.857 1.143a3.428 3.428 0 0 1 3.428-3.428h6.857a3.428 3.428 0 0 1 3.428 3.428v6.857a3.428 3.428 0 0 1-3.428 3.428h-6.857a3.428 3.428 0 0 1-3.428-3.428v-6.857zm3.428-1.143a1.14 1.14 0 0 0-1.143 1.143v6.857a1.14 1.14 0 0 0 1.143 1.143h6.857a1.14 1.14 0 0 0 1.143-1.143v-6.857a1.14 1.14 0 0 0-1.143-1.143h-6.857z"/>
    </symbol>
    <symbol id="icon-heart" viewBox="0 0 37 32">
      <path d="m18.286 11.968-2.043-4.089c-.507-1.013-1.387-2.469-2.633-3.646-1.225-1.159-2.693-1.947-4.466-1.947-3.831 0-6.857 3.031-6.857 6.674 0 2.768 1.266 4.722 4.27 7.703.77.763 1.648 1.589 2.619 2.498 2.533 2.377 5.682 5.335 9.111 9.289 3.429-3.954 6.578-6.912 9.111-9.289.971-.91 1.851-1.737 2.619-2.498 3.003-2.981 4.27-4.935 4.27-7.703 0-3.643-3.026-6.674-6.857-6.674-1.776 0-3.241.789-4.466 1.947-1.246 1.177-2.126 2.633-2.633 3.646l-2.043 4.089zm.896 18.953a1.176 1.176 0 0 1-1.39.307 1.176 1.176 0 0 1-.402-.307c-3.659-4.347-6.971-7.456-9.698-10.014C2.972 16.475.001 13.689.001 8.96.001 4.011 4.092 0 9.144 0c3.657 0 6.215 2.4 7.781 4.59a17.27 17.27 0 0 1 1.362 2.267 17.41 17.41 0 0 1 1.362-2.267C21.215 2.398 23.772 0 27.43 0c5.051 0 9.143 4.011 9.143 8.96 0 4.729-2.971 7.515-7.691 11.947-2.727 2.56-6.039 5.671-9.698 10.014z"/>
    </symbol>
    <symbol id="icon-map" viewBox="0 0 32 32">
      <path d="M31.634.226A.991.991 0 0 1 32 1v28a.999.999 0 0 1-.804.98l-10 2a.995.995 0 0 1-.392 0L11 30.02l-9.804 1.96a.995.995 0 0 1-1.1-.552A1.003 1.003 0 0 1 0 31V3a.999.999 0 0 1 .804-.98l10-2a.995.995 0 0 1 .392 0L21 1.98 30.804.02a.996.996 0 0 1 .83.206zM20 3.82l-8-1.6v25.96l8 1.6V3.82zm2 25.96 8-1.6V2.22l-8 1.6v25.96zm-12-1.6V2.22l-8 1.6v25.96l8-1.6z"/>
    </symbol>
    <symbol id="icon-shower" viewBox="0 0 37 32">
      <path d="M8.296 30.222a1.775 1.775 0 0 1-1.098 1.643 1.77 1.77 0 0 1-1.937-.386 1.778 1.778 0 1 1 3.035-1.257zm2.963-6.518a1.775 1.775 0 0 0-1.643 1.098 1.77 1.77 0 0 0 .386 1.937 1.779 1.779 0 1 0 2.514-2.514 1.781 1.781 0 0 0-1.257-.521zm-9.481 0a1.775 1.775 0 0 0-1.643 1.098 1.77 1.77 0 0 0 .386 1.937 1.779 1.779 0 1 0 2.514-2.514 1.781 1.781 0 0 0-1.257-.521zm4.741-4.741a1.775 1.775 0 0 0-1.643 1.098 1.77 1.77 0 0 0 .386 1.937 1.779 1.779 0 1 0 2.514-2.514 1.781 1.781 0 0 0-1.257-.521zM36.741 1.185a1.186 1.186 0 0 1-1.185 1.185h-4.25L27.18 6.497l-3.209 18.784a2.37 2.37 0 0 1-4.013 1.283L5.439 12.045a2.376 2.376 0 0 1-.581-2.4A2.37 2.37 0 0 1 6.727 8.03l18.776-3.21L29.977.346a1.193 1.193 0 0 1 .839-.347h4.741a1.186 1.186 0 0 1 1.185 1.185zM24.624 7.376 7.111 10.37 21.63 24.889l2.994-17.513z"/>
    </symbol>
    <symbol id="icon-tv" viewBox="0 0 41 32">
      <path d="M0 5.12S0 0 5.12 0h30.72s5.12 0 5.12 5.12v15.36s0 5.12-5.12 5.12H25.6c0 1.707.213 2.987.64 3.84h1.92a1.28 1.28 0 0 1 0 2.56H12.8a1.28 1.28 0 0 1 0-2.56h1.92c.427-.853.64-2.133.64-3.84H5.12S0 25.6 0 20.48V5.12zm3.579-2.189a1.95 1.95 0 0 0-.65.773 3.838 3.838 0 0 0-.369 1.441v15.334c0 .832.2 1.285.371 1.541.179.266.437.483.773.65.432.207.899.331 1.377.366l.064.003h30.694c.832 0 1.285-.2 1.541-.371a1.95 1.95 0 0 0 .65-.773c.207-.432.331-.899.366-1.377l.003-.064V5.12c0-.832-.2-1.285-.371-1.541a1.95 1.95 0 0 0-.773-.65 3.838 3.838 0 0 0-1.441-.369H5.12c-.832 0-1.285.2-1.541.371z"/>
    </symbol>
    <symbol id="icon-van" viewBox="0 0 32 32">
      <path d="M12 2H2v28h10V2zm18 0H20v10h10V2zm0 18v10H20V20h10zM0 2a2 2 0 0 1 2-2h10a2 2 0 0 1 2 2v28a2 2 0 0 1-2 2H2a2 2 0 0 1-2-2V2zm18 0a2 2 0 0 1 2-2h10a2 2 0 0 1 2 2v10a2 2 0 0 1-2 2H20a2 2 0 0 1-2-2V2zm2 16a2 2 0 0 0-2 2v10a2 2 0 0 0 2 2h10a2 2 0 0 0 2-2V20a2 2 0 0 0-2-2H20z"/>
    </symbol>
    <symbol id="icon-wind" viewBox="0 0 37 32">
      <path d="M28.571 2.286a5.714 5.714 0 0 0-5.715 5.715 1.14 1.14 0 0 1-1.143 1.143 1.14 1.14 0 0 1-1.143-1.143A8.003 8.003 0 0 1 25.508.61a8.007 8.007 0 0 1 10.908 5.83A8 8 0 0 1 28.569 16H1.14a1.14 1.14 0 0 1-1.143-1.143 1.14 1.14 0 0 1 1.143-1.143h27.429a5.714 5.714 0 1 0 0-11.43zm-16 2.285a2.287 2.287 0 0 0-2.285 2.285 1.14 1.14 0 0 1-1.143 1.143A1.14 1.14 0 0 1 8 6.856a4.575 4.575 0 0 1 2.822-4.224c.835-.346 1.754-.437 2.641-.26s1.701.612 2.341 1.251 1.075 1.454 1.251 2.341a4.573 4.573 0 0 1-4.484 5.463H1.142a1.14 1.14 0 0 1-1.143-1.143 1.14 1.14 0 0 1 1.143-1.143h11.429a2.287 2.287 0 0 0 1.616-3.901 2.287 2.287 0 0 0-1.616-.669zM0 19.429a1.14 1.14 0 0 1 1.143-1.143h22.953a6.856 6.856 0 0 1 4.849 11.706 6.861 6.861 0 0 1-7.473 1.487 6.861 6.861 0 0 1-4.233-6.336A1.14 1.14 0 0 1 18.382 24a1.14 1.14 0 0 1 1.143 1.143 4.575 4.575 0 0 0 2.822 4.224c.835.346 1.754.437 2.641.26s1.701-.612 2.341-1.251 1.075-1.454 1.251-2.341a4.573 4.573 0 0 0-4.484-5.463H1.143A1.14 1.14 0 0 1 0 19.429z"/>
    </symbol>
  </defs>
</svg>
